<svg width="1839" height="440" viewBox="0 0 1839 440" fill="none" xmlns="http://www.w3.org/2000/svg">
<path d="M0.0300266 61.2541L0.0300128 377.797C0.0300113 411.632 33.0446 439.081 73.7707 439.081L331.803 439.081L331.803 199.098L188.87 199.098L188.87 280.779L250.14 280.779L250.14 311.421L117.419 311.421L117.419 127.6L331.803 127.6L331.803 0.000488281L73.7406 0.000476998C33.0145 0.000475218 -6.22334e-05 27.4185 -6.37133e-05 61.2843L0.0300266 61.2541Z" fill="#A6B0AB"/>
<path d="M1082.82 79.3818H843.431V192.253H1082.82V418.08C1082.82 429.678 1073.41 439.08 1061.82 439.08H751.646V372.103H992.271V259.231H751.646V21C751.646 9.40228 761.048 0.000150005 772.646 0H1082.82V79.3818Z" fill="#A6B0AB"/>
<path d="M1329.59 107.91V439.081H1225.4V107.91H1111.29V0.000488281H1442.46V107.91H1329.59Z" fill="#A6B0AB"/>
<path d="M1817.18 0C1828.78 0.000214122 1838.18 9.40233 1838.18 21V439.08H1727.79V267.914H1613.68V439.08H1507.01V21C1507.01 9.4022 1516.41 0 1528.01 0H1817.18ZM1634.68 79.3818C1623.08 79.3818 1613.68 88.784 1613.68 100.382V202.175H1727.79V100.382C1727.79 88.7841 1718.39 79.382 1706.79 79.3818H1634.68Z" fill="#A6B0AB"/>
<path d="M710.676 306.381L562.224 439.04H400.028C388.43 439.04 379.028 429.638 379.028 418.04V0.000244141H486.213V344.815H600.325V0.000244141H710.676V306.381ZM710.676 418.04C710.676 429.638 701.274 439.04 689.676 439.04H609.603L710.676 353.759V418.04Z" fill="#A6B0AB"/>
</svg>
